<?xml version="1.0" standalone="no"?>
<!DOCTYPE svg PUBLIC "-//W3C//DTD SVG 20010904//EN"
 "http://www.w3.org/TR/2001/REC-SVG-20010904/DTD/svg10.dtd">
<svg version="1.0" xmlns="http://www.w3.org/2000/svg"
 width="512.000000pt" height="512.000000pt" viewBox="0 0 512.000000 512.000000"
 preserveAspectRatio="xMidYMid meet">

<g transform="translate(0.000000,512.000000) scale(0.100000,-0.100000)"
fill="#000000" stroke="none">
<path d="M880 4547 c-49 -16 -133 -102 -148 -153 -28 -95 -8 -168 65 -241 28
-29 59 -53 67 -53 14 0 16 -53 16 -499 l0 -500 -57 -11 c-180 -35 -469 -156
-491 -206 -7 -14 -12 -32 -12 -42 0 -22 167 -312 192 -334 30 -26 60 -22 137
17 63 32 202 85 223 85 4 0 8 -18 8 -39 0 -39 -1 -40 -52 -56 -317 -103 -562
-369 -645 -701 -24 -95 -24 -333 0 -428 46 -182 125 -323 257 -456 137 -139
281 -221 466 -267 98 -24 324 -24 424 0 182 44 326 123 456 252 159 157 257
345 282 542 l7 58 203 3 202 2 0 -175 c0 -173 0 -176 25 -200 l24 -25 271 0
271 0 24 25 c25 24 25 27 25 200 l0 175 320 0 c176 0 320 -2 320 -4 0 -2 -12
-30 -26 -62 -106 -239 -52 -517 135 -705 252 -252 650 -252 902 0 193 194 243
480 125 724 -23 47 -31 77 -26 87 5 9 27 314 50 678 38 611 40 665 26 687 -9
14 -26 27 -39 30 -12 3 -220 13 -462 23 l-440 17 -5 403 -5 404 -24 19 c-16
13 -39 19 -72 19 -42 0 -49 3 -49 20 0 45 53 155 115 237 7 9 -4 26 -40 63
-27 27 -54 50 -61 50 -18 0 -90 -99 -124 -172 -17 -36 -37 -94 -44 -129 l-13
-64 -62 -5 c-106 -9 -101 15 -101 -439 l0 -386 -126 3 c-85 2 -126 7 -129 15
-3 7 -32 228 -65 492 -33 264 -62 496 -65 515 l-6 36 53 13 c96 25 178 131
178 231 0 92 -80 202 -166 228 -56 16 -2261 16 -2314 -1z m1774 -504 c24 -145
146 -1097 146 -1135 l0 -47 -100 60 c-55 33 -100 66 -100 73 0 8 7 30 16 51 8
21 12 41 7 45 -9 9 -135 61 -138 57 -17 -23 -154 -392 -148 -398 9 -8 135 -60
138 -56 1 1 12 29 25 62 13 33 27 64 31 69 4 4 66 -27 138 -70 l131 -79 0
-217 0 -218 -127 0 c-71 0 -137 -3 -148 -5 -16 -5 -27 7 -59 67 -76 144 -150
242 -277 370 l-127 127 -73 298 c-57 229 -79 303 -96 321 -21 21 -28 22 -213
22 -189 0 -191 0 -215 -25 -24 -23 -25 -28 -25 -175 0 -82 -4 -150 -9 -150 -5
0 -23 3 -40 6 l-31 7 0 488 0 489 644 0 644 0 6 -37z m316 31 c0 -10 120 -968
126 -1008 l6 -39 -73 7 c-41 4 -75 9 -77 10 -1 2 -31 223 -67 492 -36 269 -67
501 -70 517 l-4 27 79 0 c44 0 80 -3 80 -6z m-1699 -2195 c67 -36 98 -68 137
-143 22 -43 26 -64 26 -136 0 -73 -4 -92 -27 -137 -34 -66 -84 -116 -150 -150
-45 -23 -64 -27 -137 -27 -72 0 -93 4 -136 26 -75 40 -107 70 -145 140 -31 58
-34 70 -33 148 0 72 4 93 26 136 38 73 69 106 129 139 71 38 102 45 182 40 51
-3 81 -11 128 -36z m1689 -519 l0 -80 -160 0 -160 0 0 80 0 80 160 0 160 0 0
-80z m1415 -105 c50 -49 15 -135 -55 -135 -41 0 -80 39 -80 80 0 41 39 80 80
80 19 0 40 -9 55 -25z"/>
<path d="M1065 1815 c-16 -15 -25 -36 -25 -55 0 -19 9 -40 25 -55 15 -16 36
-25 55 -25 19 0 40 9 55 25 16 15 25 36 25 55 0 19 -9 40 -25 55 -15 16 -36
25 -55 25 -19 0 -40 -9 -55 -25z"/>
<path d="M905 1655 c-16 -15 -25 -36 -25 -55 0 -19 9 -40 25 -55 15 -16 36
-25 55 -25 19 0 40 9 55 25 16 15 25 36 25 55 0 19 -9 40 -25 55 -15 16 -36
25 -55 25 -19 0 -40 -9 -55 -25z"/>
<path d="M1225 1655 c-16 -15 -25 -36 -25 -55 0 -19 9 -40 25 -55 15 -16 36
-25 55 -25 19 0 40 9 55 25 16 15 25 36 25 55 0 19 -9 40 -25 55 -15 16 -36
25 -55 25 -19 0 -40 -9 -55 -25z"/>
<path d="M1065 1495 c-16 -15 -25 -36 -25 -55 0 -19 9 -40 25 -55 15 -16 36
-25 55 -25 19 0 40 9 55 25 16 15 25 36 25 55 0 19 -9 40 -25 55 -15 16 -36
25 -55 25 -19 0 -40 -9 -55 -25z"/>
</g>
</svg>
